<?xml version="1.0" encoding="UTF-8"?>
<svg xmlns="http://www.w3.org/2000/svg" xmlns:xlink="http://www.w3.org/1999/xlink" width="1250.47pt" height="1074.49pt" viewBox="0 0 1250.47 1074.49" version="1.1">
<g id="surface1">
<path style="fill:none;stroke-width:60;stroke-linecap:butt;stroke-linejoin:miter;stroke:rgb(31.799316%,32.199097%,32.199097%);stroke-opacity:1;stroke-miterlimit:10;" d="M 1619.648438 8427.0875 L 1170.46875 9188.259375 C 1313.007813 9225.915625 1417.890625 9295.8375 1490.546875 9395.36875 C 1563.164063 9494.9 1598.125 9605.173437 1598.125 9728.884375 C 1598.125 9836.501562 1573.90625 9933.3375 1522.8125 10022.0875 C 1471.71875 10108.18125 1393.710938 10178.103125 1291.484375 10229.196875 C 1189.296875 10280.290625 1065.546875 10304.509375 920.3125 10304.509375 L 215.585938 10304.509375 L 215.585938 8427.0875 L 592.148438 8427.0875 L 592.148438 9158.689062 L 769.6875 9158.689062 L 1183.90625 8427.0875 Z M 592.148438 9992.517187 L 906.875 9992.517187 C 1009.0625 9992.517187 1084.375 9968.298437 1135.46875 9922.55625 C 1186.601563 9874.157812 1210.78125 9806.892187 1210.78125 9720.8375 C 1210.78125 9632.0875 1186.601563 9564.821875 1135.46875 9516.423437 C 1084.375 9465.290625 1009.0625 9441.110937 906.875 9441.110937 L 592.148438 9441.110937 Z M 3319.6875 9204.392187 C 3319.6875 9349.665625 3290.117188 9478.767187 3228.242188 9591.735937 C 3166.40625 9702.009375 3077.617188 9788.103125 2967.34375 9849.939062 C 2854.375 9911.814062 2727.96875 9941.384375 2585.390625 9941.384375 C 2437.460938 9941.384375 2308.359375 9909.11875 2195.390625 9847.24375 C 2082.421875 9785.36875 1993.671875 9693.9625 1931.796875 9578.259375 C 1869.921875 9462.634375 1837.65625 9325.446875 1837.65625 9172.126562 C 1837.65625 9018.80625 1869.921875 8884.314062 1934.492188 8768.65 C 1996.328125 8653.025 2085.117188 8561.540625 2200.78125 8499.704687 C 2313.710938 8435.134375 2442.851563 8402.86875 2585.390625 8402.86875 C 2762.929688 8402.86875 2913.554688 8448.571875 3034.609375 8542.7125 C 3155.625 8634.196875 3239.023438 8752.517187 3282.03125 8895.095312 L 2875.898438 8895.095312 C 2816.71875 8774.040625 2717.1875 8714.860937 2577.34375 8714.860937 C 2480.507813 8714.860937 2399.804688 8744.470312 2332.578125 8806.30625 C 2265.3125 8868.18125 2227.65625 8951.579687 2219.609375 9059.157812 L 3308.945313 9059.157812 C 3317.03125 9102.204687 3319.6875 9150.603125 3319.6875 9204.392187 Z M 2222.265625 9312.009375 C 2235.742188 9411.501562 2276.09375 9492.204687 2340.625 9548.689062 C 2402.5 9605.173437 2480.507813 9632.0875 2574.648438 9632.0875 C 2674.140625 9632.0875 2757.539063 9602.478125 2824.765625 9545.99375 C 2892.03125 9486.853125 2926.992188 9408.80625 2929.6875 9312.009375 Z M 3491.953125 9177.517187 C 3491.953125 9024.196875 3521.523438 8889.704687 3583.4375 8774.040625 C 3642.578125 8655.68125 3723.28125 8564.235937 3828.164063 8499.704687 C 3930.390625 8435.134375 4043.359375 8402.86875 4169.765625 8402.86875 C 4280.078125 8402.86875 4379.570313 8427.0875 4465.664063 8472.790625 C 4549.023438 8518.532812 4616.289063 8575.017187 4664.6875 8644.939062 L 4664.6875 8427.0875 L 5043.945313 8427.0875 L 5043.945313 9917.204687 L 4664.6875 9917.204687 L 4664.6875 9704.704687 C 4613.59375 9771.93125 4549.023438 9828.415625 4465.664063 9874.157812 C 4382.265625 9919.860937 4282.734375 9941.384375 4172.460938 9941.384375 C 4046.054688 9941.384375 3930.390625 9909.11875 3828.164063 9847.24375 C 3723.28125 9785.36875 3642.578125 9693.9625 3583.4375 9578.259375 C 3521.523438 9462.634375 3491.953125 9328.142187 3491.953125 9177.517187 Z M 4664.6875 9172.126562 C 4664.6875 9080.68125 4645.859375 9002.673437 4610.898438 8938.103125 C 4575.9375 8870.876562 4527.5 8822.478125 4465.664063 8787.478125 C 4403.789063 8752.517187 4339.21875 8733.689062 4269.296875 8733.689062 C 4202.070313 8733.689062 4137.5 8752.517187 4078.320313 8787.478125 C 4016.445313 8822.478125 3968.046875 8876.267187 3933.085938 8943.49375 C 3895.429688 9010.759375 3876.601563 9088.728125 3876.601563 9177.517187 C 3876.601563 9266.267187 3895.429688 9344.275 3933.085938 9411.501562 C 3968.046875 9476.071875 4016.445313 9524.509375 4075.625 9559.43125 C 4134.804688 9594.392187 4199.375 9610.564062 4269.296875 9610.564062 C 4339.21875 9610.564062 4403.789063 9594.392187 4465.664063 9559.43125 C 4527.5 9524.509375 4575.9375 9473.376562 4610.898438 9408.80625 C 4645.859375 9341.579687 4664.6875 9263.571875 4664.6875 9172.126562 Z M 5310.390625 9177.517187 C 5310.390625 9024.196875 5339.960938 8889.704687 5401.835938 8774.040625 C 5461.015625 8655.68125 5541.71875 8564.235937 5646.601563 8499.704687 C 5751.484375 8435.134375 5864.453125 8402.86875 5990.898438 8402.86875 C 6101.171875 8402.86875 6200.664063 8424.392187 6284.0625 8470.095312 C 6367.460938 8515.8375 6434.6875 8575.017187 6480.429688 8647.634375 L 6480.429688 8427.0875 L 6862.382813 8427.0875 L 6862.382813 10417.517188 L 6480.429688 10417.517188 L 6480.429688 9710.05625 C 6429.296875 9780.017187 6359.375 9836.501562 6270.625 9879.548437 C 6181.875 9919.860937 6090.390625 9941.384375 5993.554688 9941.384375 C 5867.148438 9941.384375 5751.484375 9909.11875 5646.601563 9847.24375 C 5541.71875 9785.36875 5461.015625 9693.9625 5401.835938 9578.259375 C 5339.960938 9462.634375 5310.390625 9328.142187 5310.390625 9177.517187 Z M 6483.125 9172.126562 C 6483.125 9080.68125 6464.296875 9002.673437 6429.296875 8938.103125 C 6394.375 8870.876562 6345.9375 8822.478125 6284.0625 8787.478125 C 6222.1875 8752.517187 6157.65625 8733.689062 6087.695313 8733.689062 C 6020.46875 8733.689062 5955.9375 8752.517187 5896.757813 8787.478125 C 5834.882813 8822.478125 5786.445313 8876.267187 5751.484375 8943.49375 C 5713.828125 9010.759375 5695 9088.728125 5695 9177.517187 C 5695 9266.267187 5713.828125 9344.275 5751.484375 9411.501562 C 5786.445313 9476.071875 5834.882813 9524.509375 5894.0625 9559.43125 C 5953.242188 9594.392187 6017.773438 9610.564062 6087.695313 9610.564062 C 6157.65625 9610.564062 6222.1875 9594.392187 6284.0625 9559.43125 C 6345.9375 9524.509375 6394.375 9473.376562 6429.296875 9408.80625 C 6464.296875 9341.579687 6483.125 9263.571875 6483.125 9172.126562 Z M 8250.429688 9917.204687 L 7860.390625 8876.267187 L 7475.78125 9917.204687 L 7053.476563 9917.204687 L 7650.625 8464.74375 L 7327.851563 7722.360937 L 7728.632813 7722.360937 L 8651.210938 9917.204687 Z M 8250.429688 9917.204687 " transform="matrix(0.1,0,0,-0.1,0,1074.49)"/>
<path style="fill:none;stroke-width:60;stroke-linecap:butt;stroke-linejoin:miter;stroke:rgb(31.799316%,32.199097%,32.199097%);stroke-opacity:1;stroke-miterlimit:10;" d="M 987.539063 6379.860937 L 987.539063 6689.196875 L 654.023438 6689.196875 L 654.023438 7057.673437 L 274.765625 7057.673437 L 274.765625 6689.196875 L 97.265625 6689.196875 L 97.265625 6379.860937 L 274.765625 6379.860937 L 274.765625 5661.696875 C 274.765625 5352.360937 433.476563 5199.079687 750.859375 5199.079687 L 987.539063 5199.079687 L 987.539063 5516.4625 L 812.734375 5516.4625 C 756.25 5516.4625 715.898438 5527.24375 691.679688 5551.423437 C 667.460938 5572.946875 654.023438 5607.907812 654.023438 5659.001562 L 654.023438 6379.860937 Z M 1915.585938 5174.860937 C 2060.820313 5174.860937 2192.617188 5207.126562 2310.976563 5271.696875 C 2426.601563 5333.532812 2520.78125 5425.017187 2590.703125 5540.642187 C 2657.929688 5656.30625 2692.890625 5790.8375 2692.890625 5944.11875 C 2692.890625 6097.439062 2660.625 6231.93125 2593.398438 6347.595312 C 2526.132813 6463.259375 2431.992188 6554.704687 2316.367188 6619.275 C 2200.664063 6681.110937 2068.867188 6713.415625 1926.328125 6713.415625 C 1783.789063 6713.415625 1651.953125 6681.110937 1536.328125 6619.275 C 1420.664063 6554.704687 1329.21875 6463.259375 1261.953125 6347.595312 C 1194.726563 6231.93125 1159.765625 6097.439062 1159.765625 5944.11875 C 1159.765625 5790.8375 1192.03125 5656.30625 1259.257813 5540.642187 C 1323.828125 5425.017187 1412.578125 5333.532812 1528.242188 5271.696875 C 1643.90625 5207.126562 1773.007813 5174.860937 1915.585938 5174.860937 Z M 1915.585938 5503.025 C 1807.96875 5503.025 1719.21875 5540.642187 1649.296875 5618.65 C 1576.640625 5693.9625 1541.679688 5801.579687 1541.679688 5944.11875 C 1541.679688 6086.696875 1579.335938 6194.275 1651.953125 6272.282812 C 1724.609375 6347.595312 1813.359375 6385.251562 1920.976563 6385.251562 C 2028.554688 6385.251562 2120 6347.595312 2195.3125 6272.282812 C 2267.929688 6194.275 2305.585938 6086.696875 2305.585938 5944.11875 C 2305.585938 5849.978125 2286.757813 5769.275 2251.796875 5702.048437 C 2216.835938 5634.782812 2168.398438 5586.384375 2109.257813 5554.11875 C 2047.34375 5519.157812 1982.8125 5503.025 1915.585938 5503.025 Z M 5003.554688 5199.079687 L 4554.375 5960.251562 C 4696.914063 5997.946875 4801.835938 6067.86875 4874.453125 6167.360937 C 4947.070313 6266.892187 4982.03125 6377.165625 4982.03125 6500.915625 C 4982.03125 6608.49375 4957.8125 6705.329687 4906.71875 6794.079687 C 4855.625 6880.173437 4777.617188 6950.095312 4675.390625 7001.189062 C 4573.203125 7052.282812 4449.453125 7076.501562 4304.21875 7076.501562 L 3599.53125 7076.501562 L 3599.53125 5199.079687 L 3976.09375 5199.079687 L 3976.09375 5930.68125 L 4153.59375 5930.68125 L 4567.8125 5199.079687 Z M 3976.09375 6764.509375 L 4290.78125 6764.509375 C 4392.96875 6764.509375 4468.28125 6740.290625 4519.414063 6694.5875 C 4570.507813 6646.15 4594.726563 6578.923437 4594.726563 6492.829687 C 4594.726563 6404.079687 4570.507813 6336.853125 4519.414063 6288.415625 C 4468.28125 6237.282812 4392.96875 6213.103125 4290.78125 6213.103125 L 3976.09375 6213.103125 Z M 5509.375 6866.696875 C 5576.601563 6866.696875 5630.390625 6888.220312 5676.132813 6931.267187 C 5719.140625 6971.61875 5740.664063 7025.407812 5740.664063 7087.282812 C 5740.664063 7149.11875 5719.140625 7202.946875 5676.132813 7245.954687 C 5630.390625 7286.30625 5576.601563 7307.829687 5509.375 7307.829687 C 5442.148438 7307.829687 5388.320313 7286.30625 5345.273438 7245.954687 C 5299.570313 7202.946875 5278.046875 7149.11875 5278.046875 7087.282812 C 5278.046875 7025.407812 5299.570313 6971.61875 5345.273438 6931.267187 C 5388.320313 6888.220312 5442.148438 6866.696875 5509.375 6866.696875 Z M 5318.398438 6689.196875 L 5318.398438 5199.079687 L 5694.960938 5199.079687 L 5694.960938 6689.196875 Z M 5963.984375 5949.509375 C 5963.984375 5796.189062 5993.59375 5661.696875 6055.46875 5546.032812 C 6114.648438 5427.7125 6195.3125 5336.228125 6300.234375 5271.696875 C 6405.117188 5207.126562 6518.085938 5174.860937 6644.492188 5174.860937 C 6754.804688 5174.860937 6854.296875 5196.384375 6937.695313 5242.0875 C 7021.054688 5287.829687 7088.320313 5347.009375 7134.023438 5419.626562 L 7134.023438 5199.079687 L 7515.976563 5199.079687 L 7515.976563 7189.470312 L 7134.023438 7189.470312 L 7134.023438 6482.0875 C 7082.929688 6552.009375 7013.007813 6608.49375 6924.257813 6651.540625 C 6835.46875 6691.892187 6744.023438 6713.415625 6647.1875 6713.415625 C 6520.78125 6713.415625 6405.117188 6681.110937 6300.234375 6619.275 C 6195.3125 6557.360937 6114.648438 6465.954687 6055.46875 6350.251562 C 5993.59375 6234.626562 5963.984375 6100.134375 5963.984375 5949.509375 Z M 7136.71875 5944.11875 C 7136.71875 5852.673437 7117.890625 5774.665625 7082.929688 5710.134375 C 7047.96875 5642.86875 6999.53125 5594.470312 6937.695313 5559.509375 C 6875.820313 5524.509375 6811.289063 5505.68125 6741.328125 5505.68125 C 6674.101563 5505.68125 6609.53125 5524.509375 6550.351563 5559.509375 C 6488.515625 5594.470312 6440.078125 5648.259375 6405.117188 5715.525 C 6367.460938 5782.751562 6348.632813 5860.759375 6348.632813 5949.509375 C 6348.632813 6038.259375 6367.460938 6116.267187 6405.117188 6183.532812 C 6440.078125 6248.064062 6488.515625 6296.501562 6547.695313 6331.4625 C 6606.835938 6366.423437 6671.40625 6382.55625 6741.328125 6382.55625 C 6811.289063 6382.55625 6875.820313 6366.423437 6937.695313 6331.4625 C 6999.53125 6296.501562 7047.96875 6245.36875 7082.929688 6180.8375 C 7117.890625 6113.571875 7136.71875 6035.603125 7136.71875 5944.11875 Z M 9264.492188 5976.384375 C 9264.492188 6121.657812 9234.882813 6250.759375 9173.046875 6363.728125 C 9111.171875 6474.001562 9022.421875 6560.095312 8912.148438 6621.93125 C 8799.140625 6683.80625 8672.734375 6713.415625 8530.195313 6713.415625 C 8382.265625 6713.415625 8253.125 6681.110937 8140.15625 6619.275 C 8027.1875 6557.360937 7938.4375 6465.954687 7876.5625 6350.251562 C 7814.6875 6234.626562 7782.421875 6097.439062 7782.421875 5944.11875 C 7782.421875 5790.8375 7814.6875 5656.30625 7879.257813 5540.642187 C 7941.132813 5425.017187 8029.882813 5333.532812 8145.546875 5271.696875 C 8258.515625 5207.126562 8387.617188 5174.860937 8530.195313 5174.860937 C 8707.695313 5174.860937 8858.320313 5220.603125 8979.375 5314.74375 C 9100.390625 5406.189062 9183.789063 5524.509375 9226.835938 5667.0875 L 8820.664063 5667.0875 C 8761.484375 5546.032812 8661.992188 5486.853125 8522.109375 5486.853125 C 8425.273438 5486.853125 8344.609375 5516.4625 8277.34375 5578.3375 C 8210.117188 5640.2125 8172.460938 5723.571875 8164.375 5831.15 L 9253.710938 5831.15 C 9261.796875 5874.196875 9264.492188 5922.634375 9264.492188 5976.384375 Z M 8167.070313 6084.001562 C 8180.507813 6183.532812 8220.859375 6264.196875 8285.429688 6320.68125 C 8347.265625 6377.165625 8425.273438 6404.079687 8519.414063 6404.079687 C 8618.945313 6404.079687 8702.34375 6374.509375 8769.570313 6318.025 C 8836.796875 6258.845312 8871.796875 6180.8375 8874.453125 6084.001562 Z M 10058.085938 7141.071875 C 9931.640625 7141.071875 9821.367188 7116.853125 9727.226563 7068.454687 C 9633.085938 7020.017187 9560.46875 6952.790625 9512.070313 6866.696875 C 9463.632813 6780.642187 9439.453125 6683.80625 9442.148438 6573.532812 L 9797.1875 6573.532812 C 9797.1875 6651.540625 9821.367188 6713.415625 9867.109375 6759.11875 C 9912.851563 6804.860937 9974.6875 6826.384375 10058.085938 6826.384375 C 10136.09375 6826.384375 10200.585938 6802.165625 10246.40625 6756.423437 C 10292.109375 6710.720312 10313.59375 6646.15 10313.59375 6568.142187 C 10313.59375 6457.86875 10270.585938 6382.55625 10187.1875 6342.204687 C 10103.789063 6301.853125 9982.773438 6280.36875 9826.757813 6280.36875 L 9705.742188 6280.36875 L 9719.179688 5823.103125 L 10050 5823.103125 L 10060.78125 6030.2125 C 10246.40625 6030.2125 10396.992188 6075.915625 10510 6170.05625 C 10622.890625 6261.501562 10679.414063 6395.99375 10679.414063 6570.8375 C 10679.414063 6748.376562 10622.890625 6888.220312 10510 6990.446875 C 10394.296875 7089.978125 10243.710938 7141.071875 10058.085938 7141.071875 Z M 9883.242188 5180.251562 C 9950.507813 5180.251562 10004.296875 5201.775 10047.304688 5244.782812 C 10090.390625 5285.134375 10111.914063 5338.923437 10111.914063 5400.798437 C 10111.914063 5462.673437 10090.390625 5516.4625 10047.304688 5559.509375 C 10004.296875 5599.821875 9950.507813 5621.384375 9883.242188 5621.384375 C 9816.015625 5621.384375 9759.53125 5599.821875 9716.484375 5559.509375 C 9670.742188 5516.4625 9649.257813 5462.673437 9649.257813 5400.798437 C 9649.257813 5338.923437 9670.742188 5285.134375 9716.484375 5244.782812 C 9759.53125 5201.775 9816.015625 5180.251562 9883.242188 5180.251562 Z M 9883.242188 5180.251562 " transform="matrix(0.1,0,0,-0.1,0,1074.49)"/>
</g>
</svg>
