<?xml version="1.0" encoding="UTF-8" standalone="no"?>
<!-- Created with Inkscape (http://www.inkscape.org/) -->

<svg
   version="1.1"
   id="svg2"
   width="1327.7467"
   height="1277.0133"
   viewBox="0 0 1327.7467 1277.0133"
   sodipodi:docname="cg icon set2_M.eps"
   xmlns:inkscape="http://www.inkscape.org/namespaces/inkscape"
   xmlns:sodipodi="http://sodipodi.sourceforge.net/DTD/sodipodi-0.dtd"
   xmlns="http://www.w3.org/2000/svg"
   xmlns:svg="http://www.w3.org/2000/svg">
  <defs
     id="defs6" />
  <sodipodi:namedview
     id="namedview4"
     pagecolor="#ffffff"
     bordercolor="#000000"
     borderopacity="0.25"
     inkscape:showpageshadow="2"
     inkscape:pageopacity="0.0"
     inkscape:pagecheckerboard="0"
     inkscape:deskcolor="#d1d1d1" />
  <g
     id="g8"
     inkscape:groupmode="layer"
     inkscape:label="ink_ext_XXXXXX"
     transform="matrix(1.3333333,0,0,-1.3333333,0,1277.0133)">
    <g
       id="g10"
       transform="scale(0.1)">
      <path
         d="m 3933.57,8143.22 c -81.72,-41.45 -181.56,-8.81 -223.01,72.91 -41.45,81.72 -8.8,181.56 72.91,223.01 81.72,41.45 181.56,8.8 223.01,-72.91 41.45,-81.72 8.81,-181.57 -72.91,-223.01 z"
         style="fill:none;stroke:#100f0d;stroke-width:210;stroke-linecap:butt;stroke-linejoin:miter;stroke-miterlimit:10;stroke-dasharray:none;stroke-opacity:1"
         id="path12" />
      <path
         d="m 5710.83,7825.79 c 24.06,-88.41 -28.11,-179.58 -116.52,-203.64 -88.41,-24.06 -179.59,28.1 -203.65,116.52 -24.06,88.41 28.11,179.58 116.52,203.64 88.41,24.06 179.59,-28.1 203.65,-116.52 z"
         style="fill:none;stroke:#100f0d;stroke-width:210;stroke-linecap:butt;stroke-linejoin:miter;stroke-miterlimit:10;stroke-dasharray:none;stroke-opacity:1"
         id="path14" />
      <path
         d="m 7956.01,6971.28 c 24.06,-88.41 -28.1,-179.59 -116.52,-203.65 -88.41,-24.06 -179.58,28.11 -203.64,116.52 -24.07,88.42 28.1,179.59 116.51,203.65 88.42,24.06 179.59,-28.1 203.65,-116.52 z"
         style="fill:none;stroke:#100f0d;stroke-width:230;stroke-linecap:butt;stroke-linejoin:miter;stroke-miterlimit:10;stroke-dasharray:none;stroke-opacity:1"
         id="path16" />
      <path
         d="m 7778.38,6192.52 c 24.06,-88.41 -28.11,-179.59 -116.52,-203.65 -88.41,-24.06 -179.59,28.11 -203.65,116.52 -24.06,88.42 28.11,179.59 116.52,203.65 88.41,24.06 179.59,-28.1 203.65,-116.52 z"
         style="fill:none;stroke:#100f0d;stroke-width:210;stroke-linecap:butt;stroke-linejoin:miter;stroke-miterlimit:10;stroke-dasharray:none;stroke-opacity:1"
         id="path18" />
      <path
         d="m 7722.68,5051.54 c -10.77,-91 -93.27,-156.03 -184.26,-145.25 -90.99,10.77 -156.02,93.27 -145.25,184.26 10.77,90.99 93.27,156.02 184.26,145.25 90.99,-10.77 156.02,-93.27 145.25,-184.26 z"
         style="fill:none;stroke:#100f0d;stroke-width:210;stroke-linecap:butt;stroke-linejoin:miter;stroke-miterlimit:10;stroke-dasharray:none;stroke-opacity:1"
         id="path20" />
      <path
         d="m 6175.38,4993 c -10.77,-90.99 -93.27,-156.02 -184.26,-145.25 -90.99,10.78 -156.02,93.27 -145.25,184.27 10.77,90.99 93.27,156.02 184.26,145.24 90.99,-10.77 156.02,-93.27 145.25,-184.26 z"
         style="fill:none;stroke:#100f0d;stroke-width:210;stroke-linecap:butt;stroke-linejoin:miter;stroke-miterlimit:10;stroke-dasharray:none;stroke-opacity:1"
         id="path22" />
      <path
         d="m 5392.61,5764.37 c 24.06,-88.42 -28.11,-179.59 -116.52,-203.65 -88.41,-24.06 -179.59,28.1 -203.65,116.52 -24.06,88.41 28.11,179.58 116.52,203.64 88.41,24.06 179.59,-28.1 203.65,-116.51 z"
         style="fill:none;stroke:#100f0d;stroke-width:210;stroke-linecap:butt;stroke-linejoin:miter;stroke-miterlimit:10;stroke-dasharray:none;stroke-opacity:1"
         id="path24" />
      <path
         d="m 3726.16,6545.41 c -81.71,-41.45 -181.56,-8.81 -223.01,72.91 -41.44,81.72 -8.8,181.56 72.92,223.01 81.71,41.45 181.56,8.8 223.01,-72.91 41.44,-81.72 8.8,-181.56 -72.92,-223.01 z"
         style="fill:none;stroke:#100f0d;stroke-width:240;stroke-linecap:butt;stroke-linejoin:miter;stroke-miterlimit:10;stroke-dasharray:none;stroke-opacity:1"
         id="path26" />
      <path
         d="m 1917.35,5919.53 c 344.69,647.21 845.55,1302.35 1535.89,1639.07 588.72,282.39 1256.15,263.39 1938.75,239.71"
         style="fill:none;stroke:#100f0d;stroke-width:280;stroke-linecap:butt;stroke-linejoin:miter;stroke-miterlimit:10;stroke-dasharray:none;stroke-opacity:1"
         id="path28" />
      <path
         d="m 3972.74,5687.53 c 372.03,564.17 805.08,991.5 1451.73,1189.44 378.17,112.68 774.64,80.53 1181.05,0.55 185.71,-36.55 373.51,-83.08 562.58,-130.34 l 177.69,-42.91 294.27,155.34"
         style="fill:none;stroke:#100f0d;stroke-width:290;stroke-linecap:butt;stroke-linejoin:miter;stroke-miterlimit:10;stroke-dasharray:none;stroke-opacity:1"
         id="path30" />
      <path
         d="m 2816.84,7173.31 -169.59,607.56 c 0,0 922.6,440.41 1106.16,417.25"
         style="fill:none;stroke:#100f0d;stroke-width:270;stroke-linecap:butt;stroke-linejoin:miter;stroke-miterlimit:10;stroke-dasharray:none;stroke-opacity:1"
         id="path32" />
      <path
         d="m 3080.23,5885.33 c 0,0 270.52,502.76 445.81,671.31"
         style="fill:none;stroke:#100f0d;stroke-width:270;stroke-linecap:butt;stroke-linejoin:miter;stroke-miterlimit:10;stroke-dasharray:none;stroke-opacity:1"
         id="path34" />
      <path
         d="m 5115.06,6673.89 317.58,-186.84 c 0,0 -207.65,-584.84 -163.17,-618.73"
         style="fill:none;stroke:#100f0d;stroke-width:270;stroke-linecap:butt;stroke-linejoin:miter;stroke-miterlimit:10;stroke-dasharray:none;stroke-opacity:1"
         id="path36" />
      <path
         d="m 7483.62,6158.74 -464.33,-9.78 -160.08,468.83 -164.69,241.52"
         style="fill:none;stroke:#100f0d;stroke-width:270;stroke-linecap:butt;stroke-linejoin:miter;stroke-miterlimit:10;stroke-dasharray:none;stroke-opacity:1"
         id="path38" />
      <path
         d="m 6039.67,4922.66 167.77,-492.55 1192.2,35.01 121.26,463.23"
         style="fill:none;stroke:#100f0d;stroke-width:280;stroke-linecap:butt;stroke-linejoin:miter;stroke-miterlimit:10;stroke-dasharray:none;stroke-opacity:1"
         id="path40" />
      <path
         d="M 259.922,5828.62 C 1730.64,9124.15 5170.33,10050.7 8499.83,9050.77 8896.22,8946.23 9577.84,8829.3 9794.65,8706.83 9893.89,8203.38 9581.68,7562.28 9101.64,7205.47 8929.21,7077.3 8843.31,6863.85 8864.47,6650.04 c 87.1,-880.17 -704.63,-1165.13 -654.76,-1942.97 31.81,-496.09 -233.36,-1022.7 -669.92,-1053.81 -231.7,-0.06 -1412.23,0.01 -1726.65,-0.01 -121.89,-0.41 -94.9,-1.48 -121.23,63.8 -713.6,2565.64 -4471.54,2443.36 -5303.937,2148.82 z"
         style="fill:none;stroke:#100f0d;stroke-width:290;stroke-linecap:butt;stroke-linejoin:miter;stroke-miterlimit:10;stroke-dasharray:none;stroke-opacity:1"
         id="path42" />
      <path
         d="M 5044.09,1553.55 C 5236.65,1369.99 5898.4,716.578 6292.49,44.7813 6318.47,0.480469 6375.5,-13.6094 6418.44,14.5586 L 8912.92,1651.01 c 45.68,29.97 54.12,93.43 17.55,134.04 -288.27,320.08 -1381.16,1548.1 -1531.57,1933.78 -13.08,33.53 -46.12,54.64 -82.11,54.64 l -1690.32,-0.09 c -51.94,0 -92.89,-43.53 -88.92,-95.32 22.17,-288.62 269.65,-1342.36 -505.21,-2011.01 -32.75,-28.26 -19.56,-83.65 11.75,-113.5"
         style="fill:#100f0d;fill-opacity:1;fill-rule:nonzero;stroke:none"
         id="path44" />
      <path
         d="m 2068.82,5470.59 96.4,-378.56 c 4.5,-17.67 5.27,-35.42 2.09,-53.37 -39.92,-225.01 -339.96,-1112.86 -498.78,-1509.25 -0.01,-0.03 -0.01,-0.06 0,-0.09 65.2,-142.19 390.75,-153.34 493.8,-304.01 115.28,-127.75 186.82,-325.85 79.64,-511.16 -9.94,-175.96 114.84,-223.48 107.14,-335.54 -13.81,-201.02 91.48,-174.35 131.94,-263.8 97.22,-177.91 -54.79,-414.87 5.27,-581.55 0.01,-0.02 0.02,-0.04 0.03,-0.06 356.43,-466.29 1398.02,-417.01 1894,-44.58 1872.37,1525.84 259.23,4017.36 -2311.53,3981.97"
         style="fill:#100f0d;fill-opacity:1;fill-rule:nonzero;stroke:none"
         id="path46" />
    </g>
  </g>
</svg>
