<?xml version="1.0" encoding="UTF-8" standalone="no"?>
<!-- Created with Inkscape (http://www.inkscape.org/) -->

<svg
   version="1.1"
   id="svg2"
   width="528.94666"
   height="563.58667"
   viewBox="0 0 528.94666 563.58667"
   sodipodi:docname="cg logomark.eps"
   xmlns:inkscape="http://www.inkscape.org/namespaces/inkscape"
   xmlns:sodipodi="http://sodipodi.sourceforge.net/DTD/sodipodi-0.dtd"
   xmlns="http://www.w3.org/2000/svg"
   xmlns:svg="http://www.w3.org/2000/svg">
  <defs
     id="defs6" />
  <sodipodi:namedview
     id="namedview4"
     pagecolor="#ffffff"
     bordercolor="#000000"
     borderopacity="0.25"
     inkscape:showpageshadow="2"
     inkscape:pageopacity="0.0"
     inkscape:pagecheckerboard="0"
     inkscape:deskcolor="#d1d1d1" />
  <g
     id="g8"
     inkscape:groupmode="layer"
     inkscape:label="ink_ext_XXXXXX"
     transform="matrix(1.3333333,0,0,-1.3333333,0,563.58667)">
    <g
       id="g10"
       transform="scale(0.1)">
      <path
         d="m 1921.29,1659.18 v 1191.74 h 92.29 V 1659.18 h -92.29"
         style="fill:#100f0d;fill-opacity:1;fill-rule:nonzero;stroke:none"
         id="path12" />
      <path
         d="m 2655.38,1358.82 355.28,1054.93 87.46,-29.46 -355.28,-1054.92 -87.46,29.45"
         style="fill:#100f0d;fill-opacity:1;fill-rule:nonzero;stroke:none"
         id="path14" />
      <path
         d="m 3064.91,2383.83 -834.15,834.14 65.26,65.26 834.14,-834.14 -65.25,-65.26"
         style="fill:#100f0d;fill-opacity:1;fill-rule:nonzero;stroke:none"
         id="path16" />
      <path
         d="m 3645.07,2690.91 -2316.41,-1337.38 -77.45,134.15 2316.41,1337.38 77.45,-134.15"
         style="fill:#100f0d;fill-opacity:1;fill-rule:nonzero;stroke:none"
         id="path18" />
      <path
         d="m 3967.06,2514.44 -151.8,-151.9 -104.6,104.7 -165.8,165.8 h -0.1 l -113.3,113.4 -132.3,132.3 151.8,151.8 516.1,-516.1"
         style="fill:#100f0d;fill-opacity:1;fill-rule:nonzero;stroke:none"
         id="path20" />
      <path
         d="m 2008.77,3997.3 c 78.22,-11.22 150.53,-57.01 222.22,-126.91 20.7,-20.18 41.53,-35.71 57.66,-56.91 l 143.89,147.58 c 0.36,1.52 0.83,2.94 1.28,4.39 -15.39,17.61 -32.39,34.16 -48.96,51.85 -76.03,81.12 -167.8,134.9 -261.46,168.84 -93.64,33.93 -184.76,46.69 -273.42,38.25 -88.61,-8.45 -167.1,-35.18 -235.48,-80.19 l -139.93,-143.52 331.57,-323.26 122.44,127.12 -145.78,141.16 c 72.46,45.63 147.78,62.83 225.97,51.6"
         style="fill:#100f0d;fill-opacity:1;fill-rule:nonzero;stroke:none"
         id="path22" />
      <path
         d="m 2688.54,3711.08 109.5,-109.5 -151.8,-151.8 -463,463 0.2,0.2 151.7,151.6 94.8,-94.8 258.6,-258.7"
         style="fill:#100f0d;fill-opacity:1;fill-rule:nonzero;stroke:none"
         id="path24" />
      <path
         d="m 3862.46,2619.04 -151.8,-151.8 -165.8,165.8 h -0.1 l -113.3,113.4 -132.3,132.3 151.8,151.8 411.5,-411.5"
         style="fill:#100f0d;fill-opacity:1;fill-rule:nonzero;stroke:none"
         id="path26" />
      <path
         d="M 3514.14,654 V 518.301 h -665 c 13.8,33.5 25.7,67.699 35.6,102.097 3.2,11.102 6.3,22.301 9.1,33.602 h 620.3"
         style="fill:#100f0d;fill-opacity:1;fill-rule:nonzero;stroke:none"
         id="path28" />
      <path
         d="M 3310.24,375.699 V 288 h -593.8 c 1.9,2.5 3.9,5.102 5.8,7.699 l 0.8,1.102 c 19,25.601 36.9,51.898 53.4,78.898 h 533.8"
         style="fill:#100f0d;fill-opacity:1;fill-rule:nonzero;stroke:none"
         id="path30" />
      <path
         d="M 3062.94,153.301 V 65.6016 h -580.4 c 39.1,26.6992 76.2,56.0974 110.9,87.6994 h 469.5"
         style="fill:#100f0d;fill-opacity:1;fill-rule:nonzero;stroke:none"
         id="path32" />
      <path
         d="M 3723.94,1059.6 V 856.801 h -815.8 V 1059.6 h 815.8"
         style="fill:#100f0d;fill-opacity:1;fill-rule:nonzero;stroke:none"
         id="path34" />
      <path
         d="M 1771.84,1059.3 V 771.602 h 645.3 c -23.7,-112.403 -68.8,-204.403 -135.3,-275.903 -10.9,-11.898 -22.5,-23.199 -34.7,-33.801 -3.4,-3.097 -6.8,-6 -10.2,-8.898 -91.4,-76.199 -208.8,-114.199 -352.2,-114.199 -116.5,0 -218.6,25.097 -306.4,75.301 -87.9,50.097 -156.4,121.796 -205.7,215 -49.3,93.199 -73.9,202.5 -73.9,328 0,121.898 24.2,229.398 72.6,322.598 48.4,93.2 115.6,164.9 201.6,215.1 86,50.1 184.6,75.3 295.7,75.3 100.4,0 188.2,-20.7 263.5,-61.9 75.3,-41.2 134.4,-101.2 177.4,-180.1 h 432.8 v 0.2 c -14.6,46 -32.2,89.5 -52.7,130.4 -62.5,124.8 -152.5,226 -269.9,303.6 -66.1,43.7 -137.3,78.2 -213.4,103.3 -71.9,23.8 -148.3,39.3 -229.1,46.5 -35.3,3.2 -71.5,4.8 -108.6,4.8 h -4.6 c -31.3,-0.1 -62,-1.5 -92.3,-4.1 -9.9,-0.9 -19.9,-1.9 -29.7,-3 -130,-14.9 -250.5,-53.3 -361.3,-115.2 -146.1,-81.6 -260.8,-195.4 -344.1,-341.5 -26.9,-47.2 -49.495,-96.4 -67.699,-147.6 -38.296,-107.3 -57.398,-223.4 -57.398,-348.398 0,-184.602 41.699,-349.5 125.097,-494.7 83.3,-145.101 198,-258.504 344.1,-340 C 1526.74,40.8008 1690.34,0 1871.34,0 c 79.2,0 154.6,8.10156 226.2,24.3008 46,10.5 90.4,24.1992 133.3,41.3008 26.4,10.5 52.2,22.3007 77.4,35.2964 31.3,16.204 61.2,33.602 89.7,52.403 7.3,4.801 14.6,9.699 21.7,14.699 44.4,30.801 85.3,65 122.7,102.398 1,1 1.9,1.903 2.8,2.903 4.9,4.801 9.6,9.699 14.3,14.699 21.1,22.301 40.9,45.602 59.5,70.102 2.7,3.398 5.2,6.8 7.8,10.296 1.8,2.403 3.6,4.903 5.3,7.301 5.5,7.5 10.9,15 16,22.602 21.8,31.699 41.3,64.101 58.5,97.398 3.9,7.5 7.6,15 11.3,22.602 21.1,43.898 38.3,89.101 51.7,135.699 7.4,25.398 13.6,51.199 18.6,77.301 V 1059.3 h -1016.3"
         style="fill:#100f0d;fill-opacity:1;fill-rule:nonzero;stroke:none"
         id="path36" />
      <path
         d="m 2798.59,3601.37 -400.8,-400.8 -468.4,-468.5 -8.4,-8.4 c -15.8,40.6 -33.9,79.7 -53.8,116.6 -5.7,10.5 -11.5,20.9 -17.6,31.2 l 504,503.9 335.5,335.5 109.5,-109.5"
         style="fill:#100f0d;fill-opacity:1;fill-rule:nonzero;stroke:none"
         id="path38" />
      <path
         d="m 1219.2,1713.06 c -78,-45.7 -168,-68.5 -270.2,-68.5 -109.301,0 -206.602,25.5 -291.699,76.6 -85.102,51.1 -151.403,123.7 -198.903,217.7 -47.5,94.1 -71.296,203 -71.296,326.7 0,125.4 23.796,234.8 71.296,328 47.5,93.1 113.801,165.3 198.903,216.4 85.097,51.1 182.398,76.6 291.699,76.6 102.2,0 192.2,-22.4 270.2,-67.2 78,-44.8 138.5,-112 181.5,-201.6 h 432.8 c -17.9,54.1 -39.7,104.9 -65.4,152.4 -19.7,36.6 -41.7,71.1 -66,103.7 -54.8,73.5 -121.2,136.8 -199.3,190.1 -157.7,107.6 -341.4,161.3 -551.101,161.3 -179.199,0 -341,-40.7 -485.199,-122.3 -144.301,-81.5 -258.102,-195.3 -341.5,-341.4 -83.3008,-146.1 -125,-311.4 -125,-496 0,-184.6 41.6992,-349.5 125,-494.7 83.398,-145.2 197.199,-258.5 341.5,-340.1 144.199,-81.5 306,-122.3 485.199,-122.3 30.301,0 60.001,1.1 89.201,3.3 77.9,5.8 151.8,19.5 221.7,41 86.7,26.5 167.2,65.1 241.6,115.7 109.2,74.3 195.6,169.2 259.2,284.9 27.7,50.3 51.1,104.5 70.1,162.7 h -432.8 c -43,-89.6 -103.5,-157.3 -181.5,-203"
         style="fill:#100f0d;fill-opacity:1;fill-rule:nonzero;stroke:none"
         id="path40" />
    </g>
  </g>
</svg>
