<?xml version="1.0" encoding="UTF-8" standalone="no"?>
<!-- Created with Inkscape (http://www.inkscape.org/) -->

<svg
   version="1.1"
   id="svg2"
   width="1302.1866"
   height="1245.3066"
   viewBox="0 0 1302.1866 1245.3066"
   sodipodi:docname="cg icon set1_F.eps"
   xmlns:inkscape="http://www.inkscape.org/namespaces/inkscape"
   xmlns:sodipodi="http://sodipodi.sourceforge.net/DTD/sodipodi-0.dtd"
   xmlns="http://www.w3.org/2000/svg"
   xmlns:svg="http://www.w3.org/2000/svg">
  <defs
     id="defs6" />
  <sodipodi:namedview
     id="namedview4"
     pagecolor="#ffffff"
     bordercolor="#000000"
     borderopacity="0.25"
     inkscape:showpageshadow="2"
     inkscape:pageopacity="0.0"
     inkscape:pagecheckerboard="0"
     inkscape:deskcolor="#d1d1d1" />
  <g
     id="g8"
     inkscape:groupmode="layer"
     inkscape:label="ink_ext_XXXXXX"
     transform="matrix(1.3333333,0,0,-1.3333333,0,1245.3067)">
    <g
       id="g10"
       transform="scale(0.1)">
      <path
         d="M 259.922,5689.57 C 1690.35,8894.8 5035.79,9796.01 8274.06,8823.44 c 385.54,-101.68 1048.48,-215.41 1259.35,-334.53 96.52,-489.65 -207.14,-1113.18 -674.03,-1460.22 -167.7,-124.65 -251.24,-332.26 -230.67,-540.2 84.72,-856.06 -685.32,-1133.22 -636.82,-1889.74 30.94,-482.51 -226.96,-994.69 -651.56,-1024.94 -225.36,-0.06 -1373.54,0.01 -1679.34,-0.01 -118.55,-0.4 -92.3,-1.44 -117.91,62.05 C 4849.03,6131.2 1194.05,6012.27 384.465,5725.8 Z"
         style="fill:none;stroke:#100f0d;stroke-width:290;stroke-linecap:butt;stroke-linejoin:miter;stroke-miterlimit:10;stroke-dasharray:none;stroke-opacity:1"
         id="path12" />
      <path
         d="m 4906.13,1510.98 c 187.28,-178.53 830.9,-814.039 1214.19,-1467.4292 25.27,-43.08205 80.74,-56.7891 122.5,-29.3906 L 8668.95,1605.77 c 44.43,29.15 52.64,90.88 17.08,130.36 -280.38,311.32 -1343.33,1505.7 -1489.62,1880.8 -12.72,32.61 -44.85,53.15 -79.85,53.15 l -1644.01,-0.09 c -50.51,0 -90.35,-42.34 -86.48,-92.71 21.56,-280.71 262.26,-1305.58 -491.37,-1955.9 -31.85,-27.49 -19.03,-81.37 11.43,-110.4"
         style="fill:#100f0d;fill-opacity:1;fill-rule:nonzero;stroke:none"
         id="path14" />
      <path
         d="m 2019.25,5341.35 93.76,-368.2 c 4.38,-17.18 5.14,-34.44 2.04,-51.9 -38.83,-218.85 -330.64,-1082.36 -485.11,-1467.9 -0.01,-0.03 -0.01,-0.06 0,-0.09 63.41,-138.29 380.04,-149.13 480.26,-295.67 112.13,-124.26 167.95,-349.04 77.47,-497.16 -9.68,-171.14 111.69,-217.35 104.2,-326.34 -13.43,-195.52 88.98,-169.58 128.32,-256.58 94.56,-173.03 -53.29,-403.5 5.13,-565.62 0.01,-0.02 0.02,-0.04 0.03,-0.05 346.66,-453.52 1359.71,-405.59 1842.1,-43.36 1821.07,1484.03 252.13,3907.28 -2248.2,3872.87"
         style="fill:#100f0d;fill-opacity:1;fill-rule:nonzero;stroke:none"
         id="path16" />
      <path
         d="M 5851.65,5967.65 H 7664.34"
         style="fill:none;stroke:#100f0d;stroke-width:290;stroke-linecap:round;stroke-linejoin:miter;stroke-miterlimit:10;stroke-dasharray:none;stroke-opacity:1"
         id="path18" />
      <path
         d="m 5955.98,5093.94 h 1305.8"
         style="fill:none;stroke:#100f0d;stroke-width:290;stroke-linecap:round;stroke-linejoin:miter;stroke-miterlimit:10;stroke-dasharray:none;stroke-opacity:1"
         id="path20" />
      <path
         d="m 6122.7,4329.45 h 773.35"
         style="fill:none;stroke:#100f0d;stroke-width:290;stroke-linecap:round;stroke-linejoin:miter;stroke-miterlimit:10;stroke-dasharray:none;stroke-opacity:1"
         id="path22" />
      <path
         d="m 8135.12,5093.94 c 0,0 337.51,-1372.3 1631.31,-931.81 0,0 -556.63,-1476.69 -2444.02,-775.05 l -132.37,229.85 457.56,-23.76 337.52,697.43 19.85,697.08 130.15,106.26"
         style="fill:#100f0d;fill-opacity:1;fill-rule:nonzero;stroke:none"
         id="path24" />
    </g>
  </g>
</svg>
