<?xml version="1.0" encoding="UTF-8" standalone="no"?>
<!-- Created with Inkscape (http://www.inkscape.org/) -->

<svg
   version="1.1"
   id="svg2"
   width="1343.96"
   height="1298.3199"
   viewBox="0 0 1343.96 1298.3199"
   sodipodi:docname="cg icon set1_M.eps"
   xmlns:inkscape="http://www.inkscape.org/namespaces/inkscape"
   xmlns:sodipodi="http://sodipodi.sourceforge.net/DTD/sodipodi-0.dtd"
   xmlns="http://www.w3.org/2000/svg"
   xmlns:svg="http://www.w3.org/2000/svg">
  <defs
     id="defs6" />
  <sodipodi:namedview
     id="namedview4"
     pagecolor="#ffffff"
     bordercolor="#000000"
     borderopacity="0.25"
     inkscape:showpageshadow="2"
     inkscape:pageopacity="0.0"
     inkscape:pagecheckerboard="0"
     inkscape:deskcolor="#d1d1d1" />
  <g
     id="g8"
     inkscape:groupmode="layer"
     inkscape:label="ink_ext_XXXXXX"
     transform="matrix(1.3333333,0,0,-1.3333333,0,1298.32)">
    <g
       id="g10"
       transform="scale(0.1)">
      <path
         d="M 259.922,5942.47 C 1749.37,9279.96 5232.86,10218.4 8604.75,9205.65 c 401.44,-105.87 1091.74,-224.29 1311.31,-348.33 100.54,-509.85 -215.68,-1159.11 -701.84,-1520.47 -174.62,-129.8 -261.61,-345.97 -240.18,-562.5 88.2,-891.38 -713.61,-1179.97 -663.1,-1967.71 32.21,-502.41 -236.34,-1035.73 -678.45,-1067.23 -234.66,-0.06 -1430.21,0.01 -1748.64,-0.01 -123.44,-0.42 -96.11,-1.5 -122.77,64.61 C 5038.39,6402.33 1232.6,6278.49 389.605,5980.2 Z"
         style="fill:none;stroke:#100f0d;stroke-width:290;stroke-linecap:butt;stroke-linejoin:miter;stroke-miterlimit:10;stroke-dasharray:none;stroke-opacity:1"
         id="path12" />
      <path
         d="M 5128.49,1573.33 C 5323.5,1387.43 5993.67,725.699 6392.78,45.3516 6419.1,0.480469 6476.85,-13.7813 6520.34,14.75 l 2526.24,1657.28 c 46.27,30.35 54.81,94.62 17.78,135.74 -291.95,324.16 -1398.75,1567.82 -1551.08,1958.41 -13.24,33.95 -46.71,55.34 -83.15,55.34 l -1711.84,-0.1 c -52.6,0 -94.08,-44.08 -90.06,-96.53 22.45,-292.29 273.09,-1359.45 -511.64,-2036.61 -33.17,-28.62 -19.82,-84.72 11.9,-114.95"
         style="fill:#100f0d;fill-opacity:1;fill-rule:nonzero;stroke:none"
         id="path14" />
      <path
         d="m 2115.33,5540.25 97.63,-383.39 c 4.55,-17.89 5.34,-35.87 2.12,-54.04 -40.43,-227.88 -344.29,-1127.03 -505.13,-1528.47 -0.02,-0.03 -0.01,-0.06 0,-0.09 66.02,-144 395.72,-155.29 500.08,-307.88 116.75,-129.38 189.21,-330 80.66,-517.68 -10.07,-178.19 116.3,-226.32 108.5,-339.8 -13.98,-203.59 92.65,-176.58 133.62,-267.16 98.46,-180.18 -55.49,-420.16 5.34,-588.96 0.01,-0.02 0.02,-0.04 0.03,-0.06 C 2899.14,1080.49 3954,1130.4 4456.29,1507.57 6352.5,3052.84 4718.83,5576.08 2115.33,5540.25"
         style="fill:#100f0d;fill-opacity:1;fill-rule:nonzero;stroke:none"
         id="path16" />
      <path
         d="M 6019.06,6192.39 H 7906.55"
         style="fill:none;stroke:#100f0d;stroke-width:290;stroke-linecap:round;stroke-linejoin:miter;stroke-miterlimit:10;stroke-dasharray:none;stroke-opacity:1"
         id="path18" />
      <path
         d="M 6214.5,5282.63 H 7574.17"
         style="fill:none;stroke:#100f0d;stroke-width:290;stroke-linecap:round;stroke-linejoin:miter;stroke-miterlimit:10;stroke-dasharray:none;stroke-opacity:1"
         id="path20" />
      <path
         d="m 6388.09,4486.6 h 805.27"
         style="fill:none;stroke:#100f0d;stroke-width:290;stroke-linecap:round;stroke-linejoin:miter;stroke-miterlimit:10;stroke-dasharray:none;stroke-opacity:1"
         id="path22" />
    </g>
  </g>
</svg>
