<?xml version="1.0" encoding="UTF-8" standalone="no"?>
<!-- Created with Inkscape (http://www.inkscape.org/) -->

<svg
   version="1.1"
   id="svg2"
   width="1335.16"
   height="1276.4667"
   viewBox="0 0 1335.16 1276.4667"
   sodipodi:docname="cg icon set2_F.eps"
   xmlns:inkscape="http://www.inkscape.org/namespaces/inkscape"
   xmlns:sodipodi="http://sodipodi.sourceforge.net/DTD/sodipodi-0.dtd"
   xmlns="http://www.w3.org/2000/svg"
   xmlns:svg="http://www.w3.org/2000/svg">
  <defs
     id="defs6" />
  <sodipodi:namedview
     id="namedview4"
     pagecolor="#ffffff"
     bordercolor="#000000"
     borderopacity="0.25"
     inkscape:showpageshadow="2"
     inkscape:pageopacity="0.0"
     inkscape:pagecheckerboard="0"
     inkscape:deskcolor="#d1d1d1" />
  <g
     id="g8"
     inkscape:groupmode="layer"
     inkscape:label="ink_ext_XXXXXX"
     transform="matrix(1.3333333,0,0,-1.3333333,0,1276.4667)">
    <g
       id="g10"
       transform="scale(0.1)">
      <path
         d="m 3931.97,8139.69 c -81.68,-41.43 -181.48,-8.8 -222.91,72.88 -41.43,81.68 -8.8,181.48 72.88,222.91 81.68,41.43 181.49,8.8 222.92,-72.88 41.43,-81.68 8.8,-181.48 -72.89,-222.91 z"
         style="fill:none;stroke:#100f0d;stroke-width:200;stroke-linecap:butt;stroke-linejoin:miter;stroke-miterlimit:10;stroke-dasharray:none;stroke-opacity:1"
         id="path12" />
      <path
         d="m 5708.46,7822.4 c 24.05,-88.37 -28.09,-179.51 -116.46,-203.56 -88.38,-24.05 -179.51,28.1 -203.56,116.47 -24.05,88.37 28.09,179.51 116.46,203.56 88.38,24.05 179.51,-28.09 203.56,-116.47 z"
         style="fill:none;stroke:#100f0d;stroke-width:200;stroke-linecap:butt;stroke-linejoin:miter;stroke-miterlimit:10;stroke-dasharray:none;stroke-opacity:1"
         id="path14" />
      <path
         d="m 7952.67,6968.26 c 24.05,-88.37 -28.09,-179.51 -116.47,-203.56 -88.37,-24.05 -179.51,28.1 -203.56,116.47 -24.05,88.37 28.1,179.51 116.47,203.56 88.38,24.05 179.51,-28.09 203.56,-116.47 z"
         style="fill:none;stroke:#100f0d;stroke-width:200;stroke-linecap:butt;stroke-linejoin:miter;stroke-miterlimit:10;stroke-dasharray:none;stroke-opacity:1"
         id="path16" />
      <path
         d="m 7775.12,6189.84 c 24.05,-88.37 -28.1,-179.51 -116.47,-203.56 -88.37,-24.05 -179.51,28.09 -203.56,116.47 -24.05,88.37 28.09,179.51 116.47,203.56 88.37,24.05 179.51,-28.1 203.56,-116.47 z"
         style="fill:none;stroke:#100f0d;stroke-width:200;stroke-linecap:butt;stroke-linejoin:miter;stroke-miterlimit:10;stroke-dasharray:none;stroke-opacity:1"
         id="path18" />
      <path
         d="m 7719.44,5049.35 c -10.77,-90.95 -93.23,-155.96 -184.18,-145.19 -90.95,10.77 -155.96,93.23 -145.19,184.19 10.77,90.95 93.23,155.95 184.18,145.18 90.96,-10.77 155.96,-93.23 145.19,-184.18 z"
         style="fill:none;stroke:#100f0d;stroke-width:200;stroke-linecap:butt;stroke-linejoin:miter;stroke-miterlimit:10;stroke-dasharray:none;stroke-opacity:1"
         id="path20" />
      <path
         d="m 6144.52,5024.62 c -10.76,-90.95 -93.23,-155.95 -184.18,-145.18 -90.95,10.77 -155.95,93.23 -145.18,184.18 10.76,90.95 93.23,155.95 184.18,145.18 90.95,-10.76 155.95,-93.23 145.18,-184.18 z"
         style="fill:none;stroke:#100f0d;stroke-width:200;stroke-linecap:butt;stroke-linejoin:miter;stroke-miterlimit:10;stroke-dasharray:none;stroke-opacity:1"
         id="path22" />
      <path
         d="m 5390.38,5761.87 c 24.05,-88.38 -28.09,-179.51 -116.47,-203.56 -88.37,-24.05 -179.51,28.09 -203.56,116.47 -24.05,88.37 28.1,179.51 116.47,203.56 88.38,24.05 179.51,-28.1 203.56,-116.47 z"
         style="fill:none;stroke:#100f0d;stroke-width:200;stroke-linecap:butt;stroke-linejoin:miter;stroke-miterlimit:10;stroke-dasharray:none;stroke-opacity:1"
         id="path24" />
      <path
         d="m 3724.66,6542.57 c -81.68,-41.43 -181.48,-8.8 -222.91,72.88 -41.43,81.68 -8.8,181.48 72.88,222.91 81.68,41.43 181.48,8.8 222.91,-72.88 41.43,-81.68 8.8,-181.48 -72.88,-222.91 z"
         style="fill:none;stroke:#100f0d;stroke-width:200;stroke-linecap:butt;stroke-linejoin:miter;stroke-miterlimit:10;stroke-dasharray:none;stroke-opacity:1"
         id="path26" />
      <path
         d="m 1916.63,5916.97 c 344.54,646.92 845.19,1301.78 1535.23,1638.35 588.46,282.27 1255.59,263.28 1937.9,239.61"
         style="fill:none;stroke:#100f0d;stroke-width:280;stroke-linecap:butt;stroke-linejoin:miter;stroke-miterlimit:10;stroke-dasharray:none;stroke-opacity:1"
         id="path28" />
      <path
         d="m 3971.13,5685.06 c 371.87,563.93 804.72,991.08 1451.1,1188.93 378,112.63 774.3,80.49 1180.53,0.55 185.64,-36.53 373.35,-83.05 562.34,-130.29 l 177.62,-42.88 294.13,155.27"
         style="fill:none;stroke:#100f0d;stroke-width:290;stroke-linecap:butt;stroke-linejoin:miter;stroke-miterlimit:10;stroke-dasharray:none;stroke-opacity:1"
         id="path30" />
      <path
         d="m 2815.73,7170.2 -169.52,607.3 c 0,0 922.2,440.22 1105.69,417.06"
         style="fill:none;stroke:#100f0d;stroke-width:250;stroke-linecap:butt;stroke-linejoin:miter;stroke-miterlimit:10;stroke-dasharray:none;stroke-opacity:1"
         id="path32" />
      <path
         d="m 3079.01,5882.78 c 0,0 270.4,502.54 445.61,671.02"
         style="fill:none;stroke:#100f0d;stroke-width:250;stroke-linecap:butt;stroke-linejoin:miter;stroke-miterlimit:10;stroke-dasharray:none;stroke-opacity:1"
         id="path34" />
      <path
         d="m 5112.95,6671 317.45,-186.76 c 0,0 -207.57,-584.58 -163.11,-618.46"
         style="fill:none;stroke:#100f0d;stroke-width:250;stroke-linecap:butt;stroke-linejoin:miter;stroke-miterlimit:10;stroke-dasharray:none;stroke-opacity:1"
         id="path36" />
      <path
         d="m 7480.49,6156.07 -464.13,-9.78 -160.02,468.63 -164.62,241.42"
         style="fill:none;stroke:#100f0d;stroke-width:250;stroke-linecap:butt;stroke-linejoin:miter;stroke-miterlimit:10;stroke-dasharray:none;stroke-opacity:1"
         id="path38" />
      <path
         d="m 6037.16,4920.53 167.7,-492.34 1191.68,35 121.21,463.03"
         style="fill:none;stroke:#100f0d;stroke-width:270;stroke-linecap:butt;stroke-linejoin:miter;stroke-miterlimit:10;stroke-dasharray:none;stroke-opacity:1"
         id="path40" />
      <path
         d="M 259.922,5826.1 C 1730,9120.2 5168.2,10046.4 8496.25,9046.85 8892.48,8942.36 9573.8,8825.47 9790.51,8703.05 9889.71,8199.83 9577.63,7559.01 9097.8,7202.35 8925.44,7074.24 8839.59,6860.87 8860.74,6647.16 8947.8,5767.37 8156.41,5482.53 8206.26,4705.04 8238.06,4209.15 7973,3682.77 7536.63,3651.68 c -231.6,-0.06 -1411.62,0.01 -1725.9,-0.01 -121.84,-0.41 -94.86,-1.48 -121.18,63.77 -713.29,2564.53 -4469.6,2442.3 -5301.632,2147.89 z"
         style="fill:none;stroke:#100f0d;stroke-width:290;stroke-linecap:butt;stroke-linejoin:miter;stroke-miterlimit:10;stroke-dasharray:none;stroke-opacity:1"
         id="path42" />
      <path
         d="M 5042.01,1552.88 C 5234.49,1369.4 5895.95,716.27 6289.87,44.7617 c 25.97,-44.273419 82.98,-58.3633 125.9,-30.2031 L 8909.16,1650.3 c 45.67,29.96 54.1,93.39 17.55,133.98 -288.15,319.94 -1380.57,1547.43 -1530.91,1932.94 -13.07,33.51 -46.1,54.62 -82.07,54.62 l -1689.58,-0.09 c -51.92,-0.01 -92.86,-43.52 -88.89,-95.28 22.16,-288.49 269.54,-1341.78 -504.99,-2010.13 -32.74,-28.26 -19.56,-83.62 11.74,-113.46"
         style="fill:#100f0d;fill-opacity:1;fill-rule:nonzero;stroke:none"
         id="path44" />
      <path
         d="m 2068.03,5468.22 96.36,-378.4 c 4.5,-17.66 5.27,-35.4 2.09,-53.34 -39.9,-224.92 -339.81,-1112.37 -498.56,-1508.6 -0.01,-0.03 -0.01,-0.06 0,-0.09 65.17,-142.13 390.58,-153.27 493.58,-303.87 115.24,-127.7 186.75,-325.71 79.61,-510.95 -9.94,-175.88 114.79,-223.37 107.09,-335.39 -13.8,-200.93 91.45,-174.27 131.89,-263.68 97.18,-177.84 -54.77,-414.7 5.26,-581.31 0.01,-0.02 0.02,-0.03 0.03,-0.05 356.28,-466.09 1397.41,-416.83 1893.18,-44.56 1871.55,1525.17 259.12,4015.61 -2310.53,3980.24"
         style="fill:#100f0d;fill-opacity:1;fill-rule:nonzero;stroke:none"
         id="path46" />
      <path
         d="m 8337.18,5125.98 c 0,0 346.87,-1410.35 1676.52,-957.65 0,0 -572.04,-1517.63 -2511.76,-796.54 l -136.04,236.23 470.25,-24.42 346.87,716.77 20.4,716.4 133.76,109.21"
         style="fill:#100f0d;fill-opacity:1;fill-rule:nonzero;stroke:none"
         id="path48" />
    </g>
  </g>
</svg>
